<svg width="16" height="16" viewBox="0 0 16 16" fill="none" xmlns="http://www.w3.org/2000/svg">
<path fill-rule="evenodd" clip-rule="evenodd" d="M7.33325 2.66671C4.75592 2.66671 2.66659 4.75605 2.66659 7.33337C2.66659 9.9107 4.75592 12 7.33325 12C9.91058 12 11.9999 9.9107 11.9999 7.33337C11.9999 4.75605 9.91058 2.66671 7.33325 2.66671ZM1.33325 7.33337C1.33325 4.01967 4.01954 1.33337 7.33325 1.33337C10.647 1.33337 13.3333 4.01967 13.3333 7.33337C13.3333 10.6471 10.647 13.3334 7.33325 13.3334C4.01954 13.3334 1.33325 10.6471 1.33325 7.33337Z" fill="url(#paint0_linear_11794_44454)"/>
<path fill-rule="evenodd" clip-rule="evenodd" d="M10.6286 10.6286C10.889 10.3683 11.3111 10.3683 11.5714 10.6286L14.4714 13.5286C14.7318 13.789 14.7318 14.2111 14.4714 14.4714C14.2111 14.7318 13.789 14.7318 13.5286 14.4714L10.6286 11.5714C10.3683 11.3111 10.3683 10.889 10.6286 10.6286Z" fill="url(#paint1_linear_11794_44454)"/>
<defs>
<linearGradient id="paint0_linear_11794_44454" x1="7.32296" y1="-11.4166" x2="-39.1247" y2="22.6654" gradientUnits="userSpaceOnUse">
<stop stop-color="#F83600"/>
<stop offset="1" stop-color="#F9D423"/>
</linearGradient>
<linearGradient id="paint1_linear_11794_44454" x1="12.5464" y1="5.93543" x2="-3.83933" y2="17.9588" gradientUnits="userSpaceOnUse">
<stop stop-color="#F83600"/>
<stop offset="1" stop-color="#F9D423"/>
</linearGradient>
</defs>
</svg>
