<svg width="32" height="32" viewBox="0 0 32 32" fill="none" xmlns="http://www.w3.org/2000/svg">
<path fill-rule="evenodd" clip-rule="evenodd" d="M2.66699 16C2.66699 15.2636 3.26395 14.6666 4.00033 14.6666H28.0003C28.7367 14.6666 29.3337 15.2636 29.3337 16C29.3337 16.7363 28.7367 17.3333 28.0003 17.3333H4.00033C3.26395 17.3333 2.66699 16.7363 2.66699 16Z" fill="#363636"/>
<path fill-rule="evenodd" clip-rule="evenodd" d="M2.66699 7.99996C2.66699 7.26358 3.26395 6.66663 4.00033 6.66663H28.0003C28.7367 6.66663 29.3337 7.26358 29.3337 7.99996C29.3337 8.73634 28.7367 9.33329 28.0003 9.33329H4.00033C3.26395 9.33329 2.66699 8.73634 2.66699 7.99996Z" fill="#363636"/>
<path fill-rule="evenodd" clip-rule="evenodd" d="M2.66699 24C2.66699 23.2636 3.26395 22.6666 4.00033 22.6666H28.0003C28.7367 22.6666 29.3337 23.2636 29.3337 24C29.3337 24.7363 28.7367 25.3333 28.0003 25.3333H4.00033C3.26395 25.3333 2.66699 24.7363 2.66699 24Z" fill="#363636"/>
</svg>
