<svg width="16" height="16" viewBox="0 0 16 16" fill="none" xmlns="http://www.w3.org/2000/svg">
<path fill-rule="evenodd" clip-rule="evenodd" d="M12.4711 3.52858C12.7314 3.78892 12.7314 4.21103 12.4711 4.47138L4.47108 12.4714C4.21073 12.7317 3.78862 12.7317 3.52827 12.4714C3.26792 12.211 3.26792 11.7889 3.52827 11.5286L11.5283 3.52858C11.7886 3.26823 12.2107 3.26823 12.4711 3.52858Z" fill="url(#paint0_linear_8302_38337)"/>
<path fill-rule="evenodd" clip-rule="evenodd" d="M3.52827 3.52858C3.78862 3.26823 4.21073 3.26823 4.47108 3.52858L12.4711 11.5286C12.7314 11.7889 12.7314 12.211 12.4711 12.4714C12.2107 12.7317 11.7886 12.7317 11.5283 12.4714L3.52827 4.47138C3.26792 4.21103 3.26792 3.78892 3.52827 3.52858Z" fill="url(#paint1_linear_8302_38337)"/>
<defs>
<linearGradient id="paint0_linear_8302_38337" x1="7.83158" y1="-14.0209" x2="-28.2403" y2="14.5878" gradientUnits="userSpaceOnUse">
<stop stop-color="#F83600"/>
<stop offset="1" stop-color="#F9D423"/>
</linearGradient>
<linearGradient id="paint1_linear_8302_38337" x1="7.83158" y1="-14.0209" x2="-28.2403" y2="14.5878" gradientUnits="userSpaceOnUse">
<stop stop-color="#F83600"/>
<stop offset="1" stop-color="#F9D423"/>
</linearGradient>
</defs>
</svg>
